<?xml version="1.0" encoding="UTF-8" standalone="no" ?>
<!DOCTYPE svg PUBLIC "-//W3C//DTD SVG 1.1//EN" "http://www.w3.org/Graphics/SVG/1.1/DTD/svg11.dtd">
<svg xmlns="http://www.w3.org/2000/svg" xmlns:xlink="http://www.w3.org/1999/xlink" version="1.1" width="1080" height="1080" viewBox="0 0 1080 1080" xml:space="preserve">
<desc>Created with Fabric.js 5.2.4</desc>
<defs>
</defs>
<g transform="matrix(1 0 0 1 540 540)" id="a4c387f4-22c1-42d3-9740-b8d7ac4505a6"  >
<rect style="stroke: none; stroke-width: 1; stroke-dasharray: none; stroke-linecap: butt; stroke-dashoffset: 0; stroke-linejoin: miter; stroke-miterlimit: 4; fill: rgb(255,255,255); fill-rule: nonzero; opacity: 1; visibility: hidden;" vector-effect="non-scaling-stroke"  x="-540" y="-540" rx="0" ry="0" width="1080" height="1080" />
</g>
<g transform="matrix(1 0 0 1 540 540)" id="6b283c0d-d323-4062-9c73-2c762cdaca7a"  >
</g>
<g transform="matrix(7.97 0 0 7.97 539.67 540.36)" id="f9c13950-559d-4341-ac3b-28a87414d36c"  >
<path style="stroke: rgb(0,0,0); stroke-width: 0; stroke-dasharray: none; stroke-linecap: butt; stroke-dashoffset: 0; stroke-linejoin: miter; stroke-miterlimit: 4; fill: rgb(44,62,80); fill-rule: nonzero; opacity: 1;" vector-effect="non-scaling-stroke"  transform=" translate(-45, -45)" d="M 81.521 31.109 C 80.661 29.379 78.562 28.671000000000003 76.82900000000001 29.534000000000002 C 75.099 30.394000000000002 74.393 32.495000000000005 75.254 34.226 C 77.583 38.911 78.76400000000001 43.96 78.76400000000001 49.236 C 78.764 67.854 63.617 83 45 83 C 26.383000000000003 83 11.236 67.854 11.236 49.236 C 11.236 33.013999999999996 22.737000000000002 19.430999999999997 38.012 16.202999999999996 L 34.883 20.941999999999997 C 33.818000000000005 22.554999999999996 34.263000000000005 24.725999999999996 35.875 25.791999999999994 C 36.469 26.183999999999994 37.139 26.370999999999995 37.801 26.370999999999995 C 38.937000000000005 26.370999999999995 40.052 25.817999999999994 40.725 24.799999999999994 L 47.901 13.929999999999994 C 47.902 13.928999999999995 47.902 13.927999999999994 47.903000000000006 13.926999999999994 L 47.92100000000001 13.899999999999995 C 47.98400000000001 13.803999999999995 48.02700000000001 13.700999999999995 48.080000000000005 13.600999999999996 C 48.129000000000005 13.507999999999996 48.188 13.419999999999996 48.229000000000006 13.321999999999996 C 48.31600000000001 13.114999999999995 48.38100000000001 12.902999999999995 48.42600000000001 12.687999999999995 C 48.43500000000001 12.646999999999995 48.43400000000001 12.602999999999994 48.44100000000001 12.561999999999996 C 48.47200000000001 12.379999999999995 48.49400000000001 12.197999999999995 48.49600000000001 12.014999999999995 C 48.49600000000001 12.000999999999996 48.50000000000001 11.986999999999995 48.50000000000001 11.972999999999995 C 48.50000000000001 11.906999999999995 48.48400000000001 11.844999999999995 48.48100000000001 11.779999999999996 C 48.473000000000006 11.634999999999996 48.46300000000001 11.491999999999996 48.43800000000001 11.348999999999997 C 48.42000000000001 11.251999999999997 48.39300000000001 11.159999999999997 48.36700000000001 11.065999999999997 C 48.335000000000015 10.947999999999997 48.302000000000014 10.829999999999997 48.25800000000001 10.715999999999998 C 48.22100000000001 10.620999999999997 48.17700000000001 10.530999999999997 48.13300000000001 10.439999999999998 C 48.08100000000001 10.332999999999998 48.02600000000001 10.228999999999997 47.96300000000001 10.126999999999997 C 47.909000000000006 10.039999999999997 47.84900000000001 9.958999999999998 47.78800000000001 9.876999999999997 C 47.71800000000001 9.783999999999997 47.64500000000001 9.693999999999997 47.56500000000001 9.606999999999998 C 47.491000000000014 9.526999999999997 47.41200000000001 9.451999999999998 47.33100000000001 9.378999999999998 C 47.28400000000001 9.336999999999998 47.24600000000001 9.286999999999997 47.19600000000001 9.246999999999998 L 36.679 0.775 C 35.176 -0.43800000000000006 32.971000000000004 -0.20199999999999996 31.758000000000003 1.3050000000000002 C 30.545 2.81 30.782000000000004 5.014 32.288000000000004 6.226000000000001 L 36.260000000000005 9.426000000000002 C 17.97 13.438 4.236 29.759 4.236 49.236 C 4.236 71.714 22.522 90 45 90 C 67.47800000000001 90 85.76400000000001 71.714 85.76400000000001 49.236 C 85.764 42.87 84.337 36.772 81.521 31.109 z" stroke-linecap="round" />
</g>
<g transform="matrix(NaN NaN NaN NaN 0 0)"  >
<g style=""   >
</g>
</g>
<g transform="matrix(NaN NaN NaN NaN 0 0)"  >
<g style=""   >
</g>
</g>
</svg>